<?xml version="1.0" encoding="UTF-8"?>
<svg id="Layer_1" xmlns="http://www.w3.org/2000/svg" version="1.1" viewBox="0 0 1920 1920">
  <!-- Generator: Adobe Illustrator 29.5.1, SVG Export Plug-In . SVG Version: 2.1.0 Build 141)  -->
  <defs>
    <style>
      .st0 {
        fill: #ff3c75;
      }
    </style>
  </defs>
  <path class="st0" d="M1730.79,1465.56c0,62.73-50.85,113.58-113.58,113.58h-542.73c-33.15.19-70.17,5.15-112.64,10.2-42.24,5.05-91.48,10.01-151.33,10.01-423.65,0-621.3-294.26-621.3-628.54,0-396.81,252.35-650.15,625.83-650.15,67.08,0,121.32,4.96,166.33,10.01,46.2,5.05,83.98,10.01,115.27,10.2h520.48c62.73,0,113.58,50.85,113.58,113.58v2.17c0,62.73-50.85,113.58-113.58,113.58h-238.71c-62.73,0-113.58,50.85-113.58,113.58v31.08c0,62.73,50.85,113.58,113.58,113.58h228.49c62.73,0,113.58,50.85,113.58,113.58h0c0,62.73-50.85,113.58-113.58,113.58h-228.49c-62.73,0-113.58,50.85-113.58,113.58v67.03c0,62.73,50.85,113.58,113.58,113.58h238.8c62.73,0,113.58,50.85,113.58,113.58v2.17ZM984.86,658.04c0-59.31-45.63-108.68-104.77-113.25-12.85-.99-26.3-1.51-40.27-1.51-192.93,0-355.03,145.59-354.67,417.47-.72,244.23,133.94,415.97,373.88,415.97,5.6,0,11.28-.12,17-.37,60.82-2.59,108.82-52.61,108.82-113.49v-604.83Z"/>
</svg>